<?xml version="1.0" encoding="utf-8"?>
<!-- Generator: Adobe Illustrator 18.1.1, SVG Export Plug-In . SVG Version: 6.00 Build 0)  -->
<svg version="1.1" id="レイヤー_1" xmlns="http://www.w3.org/2000/svg" xmlns:xlink="http://www.w3.org/1999/xlink" x="0px"
	 y="0px" viewBox="0 0 292 181" enable-background="new 0 0 292 181" xml:space="preserve">
<path fill="#FFFFFF" d="M89.4,76.4c0.1,0.2,0.1,0.9,0.1,1.2c0,0.3-0.1,1.8-0.1,2.1c0,0.8,0.1,3.2,0.6,3.5c0,0,0.2,0.1,0.2,0.2
	c0,0,0,0.1,0,0.2c0,0.2-0.1,0.6-0.2,0.7c-0.1,0.1-0.2,0.2-0.4,0.2c-0.4,0-0.6-0.6-0.6-0.7c-0.5-1.2-0.6-2.7-0.6-3.9
	c0-1.2,0.1-1.8,0.2-2.7c0-0.3,0.1-0.9,0.1-1c0-0.1,0-0.2,0.2-0.2C89.1,76.1,89.3,76.3,89.4,76.4z M95.1,80.6c0,1.2,0,1.6-0.2,2.2
	c0.5,0.2,0.9,0.3,1.3,0.5c0.3,0.1,0.5,0.3,0.5,0.7c0,0.2-0.1,0.4-0.4,0.4c-0.2,0-0.4-0.1-0.6-0.2c-0.6-0.4-0.7-0.5-1.1-0.6
	c-0.2,0.3-0.4,0.5-1.1,0.5c-0.3,0-0.6,0-0.9-0.1c-0.6-0.1-0.7-0.4-0.8-0.7c-0.3-0.3-0.3-0.3-0.3-0.5c0-0.4,0.3-0.5,1.1-0.5
	c0.3,0,0.5,0,1.4,0.2c0.1-0.4,0.2-0.8,0.2-1.6c0-0.4,0-0.6-0.1-1.3c-0.5,0.1-0.7,0.1-1,0.1c-0.8,0-1.2-0.3-1.2-0.5
	c0-0.1,0-0.1,0.4-0.1c0.3,0,1.1-0.1,1.7-0.3c0,0,0-0.4-0.1-0.4c0-0.1,0-0.3,0-0.3c0-0.1,0.2-0.6,0.5-0.6c0.2,0,0.3,0.1,0.4,0.3
	c0.1,0.2,0.1,0.4,0.2,0.8c0.8-0.2,1-0.3,1.1-0.3c0.4,0,0.7,0.3,0.7,0.5c0,0.3-0.5,0.4-1.7,0.7C95,79.7,95.1,79.9,95.1,80.6z
	 M92.4,82.9c-0.1,0-0.3,0-0.3,0.2c0,0.1,0.1,0.1,0.1,0.2c0.2,0.1,0.5,0.2,0.9,0.2c0.3,0,0.4-0.1,0.5-0.2
	C93.1,83,92.8,82.9,92.4,82.9z M94.6,76c1,0,1.5,0.3,1.5,0.7c0,0.4-0.5,0.6-0.9,0.6c-0.1,0-0.1,0-0.2-0.2c-0.2-0.2-0.3-0.2-1.5-0.3
	c-0.2,0-0.8-0.1-0.7-0.3C92.8,76.2,93.7,76,94.6,76z M97.4,77.8c0,0.2-0.2,0.2-0.3,0.2c-0.6,0-1.1-0.5-1.1-0.7
	c0-0.2,0.1-0.2,0.3-0.2C96.6,77.2,97.4,77.4,97.4,77.8z M98.4,77c0,0.1-0.1,0.3-0.4,0.3c-0.5,0-1-0.5-1-0.7c0-0.2,0.2-0.2,0.3-0.2
	C97.7,76.4,98.4,76.7,98.4,77z"/>
<path fill="#FFFFFF" d="M104.9,75.5c0.3,0,0.8,0.2,0.8,0.7c0,0.4-0.2,0.7-1.9,1.9c-0.9,0.7-2,1.6-2,2c0,0.1,0,0.3,1,0.9
	c0.3,0.2,1.8,1,2,1.2c1.3,0.8,1.8,1.2,1.8,1.9c0,0.3-0.2,0.6-0.5,0.6c-0.2,0-0.5-0.3-1.2-0.9c-0.5-0.5-3.4-2.7-3.6-2.9
	c-0.3-0.3-0.4-0.6-0.4-0.8c0-0.6,1.1-1.7,2.2-2.8c0.3-0.3,1.3-1.4,1.3-1.6c0-0.1,0-0.1-0.1-0.1C104.5,75.6,104.7,75.5,104.9,75.5z"
	/>
<path fill="#FFFFFF" d="M112.3,76c0-0.1,0-0.1-0.1-0.2c0.2-0.2,0.3-0.5,0.6-0.5c0.3,0,0.6,0.2,0.6,0.6c0,0.3-0.1,0.5-0.4,1.5
	c0.3-0.1,1.3-0.4,1.4-0.5c0.2-0.2,0.3-0.2,0.7-0.2c0.4,0,0.6,0.2,0.6,0.4c0,0.3-0.5,0.5-0.7,0.5c-0.3,0.1-0.4,0.1-2.4,0.7
	c-0.1,0.2-0.3,0.9-0.4,1c-0.3,1-0.9,2.9-0.9,3.8c0,0.1,0,0.5,0,0.5c0,0.4-0.3,0.8-0.7,0.8c-0.2,0-0.4-0.2-0.4-0.6
	c0-0.3,0.1-0.6,0.5-2.1c0.1-0.2,0.8-3,0.9-3.4c-0.7,0.2-0.8,0.2-1,0.2c-0.4,0-0.7-0.3-0.7-0.4c0-0.1,0.1-0.1,0.5-0.2
	c0.5-0.1,1.3-0.3,1.3-0.3C112.2,76.6,112.3,76.1,112.3,76z M113.9,82.9c0.1,0,0.2,0,0.5,0.1c0.7,0.2,1.5,0.2,1.9,0.2
	c0.1,0,0.5,0,0.7,0c0.3,0,0.3-0.1,0.4-0.1c0.2,0,1,0.3,1,0.8c0,0.3-0.2,0.4-0.9,0.4c-1.6,0-3.9-0.7-3.7-1.2
	C113.7,83,113.8,82.9,113.9,82.9z M114.7,79.6c0.7-0.2,1.4-0.2,1.8-0.2c1.1,0,1.6,0.4,1.6,0.8c0,0.2-0.3,0.5-1,0.5
	c-0.1,0-0.2,0-0.3-0.1c-0.2-0.3-0.3-0.4-0.9-0.4c-0.3,0-1.4,0.1-1.6,0.1c-0.3,0-0.3-0.1-0.3-0.2C114.1,79.7,114.6,79.6,114.7,79.6z"
	/>
<path fill="#FFFFFF" d="M121.2,78.2c0-0.1,0.1-0.1,0.4-0.1c0.7-0.1,1.4-0.1,1.9-0.2c0-0.3,0.2-1.5,0.2-1.7c0-0.1-0.1-0.2-0.2-0.2
	c0.2-0.4,0.4-0.6,0.7-0.6c0.2,0,0.5,0.1,0.5,0.7c0,0.1,0,0.3-0.1,0.6c-0.1,0.5-0.1,0.6-0.2,0.9c0.9-0.2,1.9-0.5,2.2-0.8
	c0.2-0.2,0.3-0.2,0.5-0.2c0.3,0,0.8,0.1,0.8,0.6c0,0.2-0.1,0.4-0.9,0.6c-0.7,0.2-1.3,0.4-2.7,0.7c0,0.1-0.1,0.7-0.1,0.8
	c0,0.1-0.1,0.4-0.1,0.7c0,0.2,0,0.3,0.2,0.3c0.1,0,0.7-0.2,0.8-0.2c0.6-0.2,1.1-0.2,1.7-0.2c0.4,0,1.2,0.1,1.7,0.4
	c0.3,0.2,0.6,0.7,0.6,1.2c0,1-0.9,1.7-1.4,2.1c-1.6,1.1-2.8,1.3-2.9,1.3c-0.1,0-0.3,0-0.3-0.2c0-0.2,0.1-0.2,0.4-0.4
	c0.2-0.1,1.8-0.8,2.7-2.1c0.2-0.3,0.3-0.5,0.3-0.8c0-0.7-0.5-0.8-1-0.8c-0.9,0-1.9,0.4-2.3,0.6c-0.3,0.2-0.6,0.4-0.9,0.4
	c-0.2,0-0.3-0.1-0.4-0.4c-0.1-0.3-0.1-0.4-0.1-1.1c0-0.1,0-0.3,0.2-1.4c-0.3,0.1-0.7,0.1-1.3,0.1C121.4,78.8,121.2,78.3,121.2,78.2z
	"/>
<path fill="#FFFFFF" d="M133.2,76.9c0.1,0.2,0.1,0.4,0.1,0.7c0,0.8,0,1.5,0.1,2.7c0,0.4,0.2,1.7,0.6,2.3c0.1,0.1,0.3,0.4,0.4,0.4
	c0.1,0.1,0.1,0.3,0.1,0.4c0,0.4-0.2,0.7-0.4,0.7c-0.6,0-1.1-1.3-1.3-2c-0.2-0.8-0.3-2.1-0.3-2.9c0-0.3,0-0.7,0.1-1.1
	c0.1-0.7,0.1-0.9,0.1-1c0-0.3,0-0.4,0.1-0.4C132.8,76.6,133,76.6,133.2,76.9z M139.2,77.5c0,0.1,0,0.3,0.2,0.3c0.1,0,0.2,0,0.2,0
	c0.4-0.1,0.4-0.1,0.6-0.1c0.8,0,0.9,0.1,0.9,0.3c0,0.1-0.1,0.3-0.5,0.5c-0.3,0.1-0.8,0.2-1.5,0.3c0,0.8,0,1,0,1.3
	c0,0.9-0.1,1.7-0.3,2.6c1.1,0.5,1.2,0.5,1.4,0.7c0.2,0.2,0.4,0.5,0.4,0.8c0,0.3-0.2,0.3-0.3,0.3c-0.1,0-0.2,0-0.7-0.4
	c-0.1-0.1-0.6-0.4-1.1-0.6c-0.2,0.2-0.4,0.5-1.2,0.5c-1.7,0-1.9-1.4-1.9-1.4c0-0.5,0.6-0.5,0.7-0.5c0.6,0,1.1,0.1,1.8,0.4
	c0.1-0.4,0.2-0.9,0.2-2.2c0-0.5,0-0.9,0-1.2c-0.7,0.1-1,0.1-1.8,0.1c-0.7,0-0.8-0.2-0.8-0.3c0-0.1,0-0.1,0.7-0.3
	c0.4-0.1,1.3-0.2,1.5-0.3c0.2-0.1,0.2-0.1,0.3-0.1c0-0.2-0.1-1.1-0.1-1.3c0-0.2,0-0.3-0.2-0.3c0.2-0.3,0.4-0.6,0.7-0.6
	c0.2,0,0.4,0.1,0.5,0.4c0.1,0.2,0.1,0.3,0.1,0.8L139.2,77.5z M137.4,82.8c-0.5-0.2-0.8-0.3-0.9-0.3c-0.1,0-0.2,0-0.2,0.1
	c0,0.1,0.3,0.5,0.7,0.5c0.1,0,0.4,0,0.5-0.3C137.6,82.9,137.4,82.8,137.4,82.8z"/>
<path fill="#FFFFFF" d="M146.7,85.8c-0.3,0-0.5-0.2-1-0.7c-0.6-0.6-1.2-1.2-1.4-1.5c-0.1-0.1-0.2-0.3-0.2-0.4c0-0.1,0.1-0.2,0.3-0.2
	c0.5,0,1.5,0.5,2,0.9c0.3,0.2,0.8,0.6,0.8,1.2C147.2,85.5,146.9,85.8,146.7,85.8z"/>
<path fill="#FFFFFF" d="M154.2,78.6c0.1,0,0.2,0.1,0.2,0.2c0,0.4-1.4,1-1.7,1c-0.2,0-0.3-0.2-0.3-0.4c0-0.1,0-0.2,0.1-0.2
	c0,0,1-0.3,1.1-0.4L154.2,78.6z M153.7,82.5c0.1-0.1,0.6-1,0.6-1.4c0-0.1,0-0.2-0.3-0.5c0,0-0.1-0.1-0.1-0.2c0-0.1,0-0.1,0.1-0.2
	c0.2-0.2,0.3-0.5,0.5-0.7c0.2-0.2,0.3-0.5,0.3-0.7c0,0,0-0.2,0-0.3c0.4-0.3,0.4-0.3,0.6-0.3c0.2,0,0.4,0.2,0.4,0.4
	c0,0.1,0,0.2-0.1,0.3l-0.8,1.3c0,0,0,0.1,0,0.1c0,0,0.1,0.5,0.2,0.7c-0.2,0.8-0.2,0.8-0.3,1c-0.1,0.1-0.3,0.4-0.3,0.6
	c0,0.1,0.1,0.1,0.5,0.2c1.7,0.1,7.2,1.1,8.1,2c0.2,0.2,0.3,0.4,0.3,0.7c0,0.3-0.3,0.3-0.3,0.3c-0.5,0-1.3-0.3-1.7-0.6
	c-0.6-0.3-1-0.4-2.5-0.8c-0.8-0.2-0.9-0.2-1.8-0.4c-2.1-0.4-2.3-0.5-2.8-0.5c0,0-1.3,0-1.3,0c0,0-0.3,0-0.3-0.3
	c0-0.2,0.1-0.3,0.2-0.3L153.7,82.5z M154,76.5c0.5,0,0.8,0.2,0.8,0.6c0,0.3-0.2,0.4-0.4,0.4c-0.3,0-0.8-0.2-0.8-0.7
	C153.6,76.7,153.7,76.5,154,76.5z M158.5,80.1c0.1-0.1,0.2-0.1,0.3-0.1c0.1,0,0.1,0.1,0.1,0.1c0,0.3-0.6,0.7-1.5,1.4
	c-0.5,0.4-0.8,0.6-1.2,0.6c-0.4,0-0.5-0.4-0.5-0.6c0-0.1,0-0.3,0.2-0.3c0.7-0.2,0.7-0.2,1.1-0.4c0-0.3,0-2.5,0-2.9
	c0-0.2,0-0.3-0.1-0.7v0c0-0.1,0.1-0.5,0.4-0.5c0,0,0.2,0,0.2,0c0.5-0.4,0.7-0.5,1.1-1c0.1-0.1,0.2-0.6,0.2-0.6
	c0.3-0.1,0.5-0.2,0.7-0.2c0.4,0,0.5,0.3,0.5,0.4c0,0.3-0.3,0.6-0.6,0.8c-0.3,0.2-1.4,0.9-1.5,1.1c-0.1,0.1-0.1,0.3-0.1,0.4
	c0,0.3,0.1,1.5,0.1,1.8c0,0.3,0,0.5,0,1.1C157.9,80.3,158.4,80.1,158.5,80.1z M161.8,76.4c0.1,0,0.3,0.1,0.3,0.2
	c0,0.1-0.1,0.2-0.1,0.2c-0.2,0.1-0.7,0.2-0.9,0.3c0.1,0.2,0.1,0.3,0.1,0.4c0,0.3-0.1,1.6-0.1,1.8c0,2.4,0,2.7-0.1,3.2
	c-0.1,0.7-0.2,1-0.4,1c-0.3,0-0.4-0.8-0.4-1v-5.3c-0.2,0-0.2,0-0.3,0c-0.2,0-0.3-0.1-0.3-0.2c0-0.3,0.7-0.4,0.8-0.4L161.8,76.4z
	 M162.5,77.6l0.1-1c0.1-0.1,0.2-0.2,0.3-0.2c0.1,0,0.1,0,0.3,0.2c0.5,0.3,0.7,0.4,0.7,0.7c0,0.3-0.2,0.5-1.4,2.4
	c-0.1,0.2-0.5,0.7-0.6,0.7c-0.2,0-0.2-0.2-0.2-0.3c0-0.1,0-0.2,0-0.2L162.5,77.6z"/>
<path fill="#FFFFFF" d="M169.7,77.4l0.5-0.8c0.1-0.3,0.2-0.3,0.4-0.7c0.1-0.2,0.1-0.3,0.1-0.4c-0.1,0-0.1,0-0.1-0.1
	c0.1-0.2,0.2-0.2,0.5-0.5c0.1-0.1,0.3-0.2,0.6-0.2c0.2,0,0.4,0.2,0.4,0.4c0,0.4-0.4,1.1-0.5,1.2l-0.6,0.8l-0.8,0.9l-0.2,0.1
	l-0.7,0.7c-0.2,0.2-1.3,1.1-1.7,1.1c0,0-0.1,0-0.1,0c0-0.1,0-0.2,0.2-0.3c0-0.1,0.3-0.3,0.3-0.3c0.3-0.4,1.1-1.2,1.2-1.5
	c0.1-0.1,0.1-0.1,0.2-0.2L169.7,77.4z M169.4,83.6c-0.1-0.3-0.1-0.4-0.2-0.5l-0.1,0C169,83,169,83,169,82.9c0-0.6,0.4-0.8,0.6-0.8
	c0.3,0,0.4,0.3,0.7,0.9c0.1,0.2,0.3,0.9,0.3,1.5c0,0.3,0,0.3-0.1,0.4c-0.1,0-0.1,0-0.2,0c-0.2,0-0.5-0.5-0.5-0.5L169.4,83.6z
	 M170.4,79.9c0.4-0.1,0.5-0.1,1.6-0.4c0.5-0.1,1.3-0.3,1.8-0.3c0.4,0,0.7,0.3,0.7,0.5c0,0.3-0.4,0.3-0.6,0.3c-0.1,0-2,0.2-2.3,0.3
	c-0.6,0.1-0.7,0.1-1.2,0.1c-0.3,0-0.5-0.1-0.5-0.2C169.9,79.9,170.2,79.9,170.4,79.9z M171.1,81.7c1.4-0.3,1.5-0.3,2.9-0.5
	c0.1,0,0.5,0,0.6,0c0.2,0,0.8,0.3,1.2,0.6c0.1,0.1,0.1,0.1,0.1,0.4c0,0.1-0.5,1.6-0.8,2.2c0,0.1-0.2,0.4-0.2,0.4
	c-0.1,0.1-0.2,0.2-0.4,0.2h-0.1c-0.4-0.1-0.5-0.1-0.8-0.1c-0.4,0-0.4,0-1.1,0.1c-0.2,0-0.9,0.1-0.9,0.1c0,0-0.5-0.1-0.6-0.1
	c0,0-0.1-0.1-0.1-0.1c0-0.1,0.2-0.2,0.4-0.3c0.5,0,1.5-0.2,1.9-0.3c0.5-0.1,0.5-0.1,0.7-0.4c0.2-0.3,0.5-1.6,0.5-1.8
	c0-0.3-0.2-0.4-0.2-0.4c-0.6,0-1.9,0.2-2.5,0.3c-0.1,0-1,0.1-1,0.1c-0.3,0-0.5-0.2-0.5-0.2C170.2,81.9,170.3,81.8,171.1,81.7z
	 M177,79.2l-1.1-0.5l-1.2-0.5c-0.5-0.2-0.5-0.2-0.8-0.4c-0.1-0.1-0.4-0.2-0.5-0.2c-0.1,0-0.2-0.1-0.2-0.2c0-0.1,0.1-0.2,0.2-0.2
	c0.2,0,1.6,0.3,2,0.4c0.6,0.2,1.5,0.5,2.1,0.7c0.3,0.1,1.1,0.6,1.1,1.2c0,0.2-0.2,0.4-0.3,0.4c0,0-0.4-0.1-0.5-0.1L177,79.2
	L177,79.2z"/>
<path fill="#FFFFFF" d="M185.3,76c0-0.2-0.1-0.2-0.2-0.3c0.2-0.4,0.5-0.6,0.8-0.6c0.5,0,0.7,0.6,0.7,1c0,0.1-0.1,0.7-0.1,1
	c0.2,0,1.2-0.3,1.3-0.4c0.1,0,0.3-0.2,0.4-0.2c0.1,0,0.1-0.1,0.3-0.1c0.4,0,1,0.1,1,0.5c0,0.3-0.4,0.4-0.5,0.4c-0.1,0-2,0.5-2.5,0.6
	c0,0.2-0.1,1.4-0.1,1.6c0,0.1,0,0.2,0.1,0.2c0.1,0.2,0.4,0.5,0.4,1.4c0,2.4-1.5,3.8-2.1,3.8c-0.1,0-0.2,0-0.2-0.1
	c0-0.1,0-0.1,0.2-0.4c0,0,0.7-0.8,0.7-1.6c-0.2,0-0.3,0.1-0.5,0.1c-0.8,0-1.1-0.3-1.9-1c-0.2-0.2-0.2-0.2-0.6-0.3
	c-0.1,0-0.2-0.2-0.2-0.3c0-0.3,0.7-0.8,1.1-1c0.5-0.3,1.3-0.7,2-0.8c0-0.4,0-0.6,0-1.4c-2.1,0.5-3.5,0.7-3.7,0.7
	c-0.5,0-0.7-0.3-0.7-0.4c0-0.1,0.1-0.1,1.2-0.4c1.6-0.3,1.8-0.4,3.2-0.7C185.4,76.4,185.4,76.3,185.3,76z M185.1,82.1
	c0,0,0.2,0,0.2-0.1c0.1-0.4,0.1-1.3,0.1-1.4c0-0.2,0-0.2-0.1-0.2c-0.4,0-1.8,0.8-1.8,0.9C183.7,81.5,184.3,82.1,185.1,82.1z"/>
<path fill="#FFFFFF" d="M195.2,79.5c0.1,0,0.3-0.1,0.4-0.1c0.7-0.2,1.1-0.3,1.8-0.3c0.5,0,0.9,0.1,1.4,0.3c0.4,0.2,0.8,0.7,0.8,1.3
	c0,1-1.1,2.1-1.3,2.3c-0.5,0.5-1.7,1.4-2.8,1.4c-1,0-1.5-0.4-2-0.7c-0.2-0.1-0.4-0.2-0.4-0.4c0-0.2,0.1-0.4,0.6-0.6
	c0.2-0.1,0.7-0.3,1.2-0.3c0.3,0,1.1,0,1.7,0.7c1.2-0.8,2-1.9,2-2.5c0-0.7-0.6-0.7-0.9-0.7c-0.4,0-1,0.1-1.4,0.2
	c-1.1,0.3-1.6,0.5-2.7,1.2c-0.4,0.2-0.5,0.2-0.7,0.2c-0.2,0-0.3-0.1-0.3-0.4c0-0.4,0.2-0.6,0.5-0.8l0.9-0.8c1-0.8,2.4-2.3,2.4-2.5
	c0-0.1-0.1-0.1-0.1-0.1c-0.2,0-1.3,0.3-1.6,0.4c-1.3,0.4-1.4,0.4-1.7,0.4c-0.5,0-0.7-0.3-0.7-0.4c0-0.2,0.3-0.2,0.5-0.3
	c0.2-0.1,0.3-0.1,1.3-0.4c0.6-0.2,2.2-0.5,2.5-0.5c0.3,0,1,0.3,1,0.9c0,0.1,0,0.3-0.3,0.6C197.3,77.5,195.2,79.4,195.2,79.5
	L195.2,79.5L195.2,79.5z M195.1,83.1c-0.1,0-0.5,0-0.6,0.1c-0.2,0-0.2,0.1-0.2,0.2c0,0.2,0.7,0.3,0.9,0.3c0.3,0,0.5-0.1,0.7-0.2
	C195.8,83.2,195.7,83.1,195.1,83.1z"/>
<path fill="#FFFFFF" d="M205.8,84.2c0,0.9-0.7,1.6-1.6,1.6c-0.9,0-1.6-0.7-1.6-1.6c0-0.9,0.7-1.6,1.6-1.6
	C205.1,82.6,205.8,83.3,205.8,84.2z M203.2,84.2c0,0.6,0.5,1,1,1c0.6,0,1-0.5,1-1c0-0.6-0.4-1-1-1C203.6,83.2,203.2,83.6,203.2,84.2
	z"/>
<path fill="#FFFFFF" d="M81,93.5c0-0.1-0.1-0.2-0.1-0.2c0.2-0.3,0.4-0.4,0.8-0.4c0.8,0,1.2,0.7,1.2,1.2c0,0.4-0.1,0.5-0.7,1.1
	c-2.2,2.2-2.4,2.4-3.5,3.5c2.3-0.6,2.5-0.6,3.1-0.8c0.3-0.1,0.7-0.3,1.1-0.3c0.2,0,1.5,0.3,1.5,0.9c0,0.3-0.2,0.4-0.5,0.5
	c-0.8,0.3-1.2,0.4-1.9,0.8c-1.4,0.8-1.8,2.6-1.8,3.5c0,0.4,0.1,0.9,0.4,1.4c0.3,0.4,0.9,1.2,1,1.3c0.7,0.6,0.7,0.7,0.7,0.9
	c0,0.4-0.5,0.4-0.8,0.4c-1.7,0-2.7-1.7-2.7-3.5c0-1.4,0.5-2.8,1.3-3.9c0.1-0.1,0.4-0.4,0.4-0.5c0,0-0.1,0-0.1,0
	c-0.4,0-3.2,0.9-3.9,1.1c-1.8,0.6-2,0.7-2.5,0.7c-0.8,0-1.2-0.6-1.2-0.8c0-0.1,0-0.2,0.3-0.2c0.1,0,0.9-0.2,1.1-0.2
	c0.4-0.1,2.2-0.6,2.7-0.8C78.5,97.3,81,94,81,93.5z M75.9,95c0.5,0.1,0.8,0.1,0.9,0.1c0.1,0,0.6-0.1,0.7-0.1c0.1,0,0.2,0,0.2,0.2
	c0,0.4-0.8,1.7-1.5,1.7c-0.7,0-1.4-0.9-1.4-1.7c0-0.2,0.1-0.5,0.4-0.5C75.2,94.8,75.8,95,75.9,95z"/>
<path fill="#FFFFFF" d="M89.3,98.6c1.4-0.6,4.1-1.6,6.1-1.6c2,0,3.3,1.5,3.3,2.7c0,1.7-1.6,4.5-2.8,5.8c-0.4,0.4-1.7,1.8-2.2,1.8
	c-0.2,0-0.3-0.1-0.3-0.3c0-0.2,0.1-0.4,0.6-1.1c2.2-3.5,2.9-5.8,2.9-6.3c0-0.8-0.6-1.6-1.6-1.6c-0.3,0-1.6,0.1-3.1,0.8
	c-0.3,0.1-1.7,0.9-2,1c-0.2,0.1-0.4,0.1-0.5,0.1c-0.8,0-1.2-0.6-1.2-0.6C88.5,98.9,88.8,98.8,89.3,98.6z M93.9,93.1
	c0.9,0,2.3,0.4,2.3,1.3c0,0.3-0.1,1-1.2,1c-0.4,0-0.4,0-0.6-0.3c-0.3-0.4-0.6-0.6-1.2-1c-0.6-0.3-0.7-0.4-0.7-0.6
	C92.5,93.2,93.5,93.1,93.9,93.1z"/>
<path fill="#FFFFFF" d="M107.3,108.4c-0.4,0-0.7-0.3-1.5-1.1c-0.9-0.9-1.7-1.7-2-2.1c-0.1-0.2-0.3-0.4-0.3-0.6
	c0-0.1,0.1-0.3,0.4-0.3c0.7,0,2.2,0.8,2.9,1.3c0.4,0.3,1.2,0.9,1.2,1.7C108,108,107.6,108.4,107.3,108.4z"/>
<path fill="#FFFFFF" d="M118.8,102.8l-0.2-1.7l-0.2-1.5c0-0.2-0.2-1.1-0.2-1.3c0-0.2-0.1-0.2-0.2-0.3c0-1,0.6-1.1,0.7-1.1
	c0.7,0,0.9,1.2,0.9,1.5l0.2,1.4l0.1,0.7l0.3,2.8c0.2,0,0.2,0,0.6,0c0.1,0,1.3-0.3,1.3-0.3c0,0,0.2-0.2,0.1-0.7
	c0.1-0.1,0.2-0.1,0.5-0.1c0.4,0,0.7,0.2,0.8,0.3c0.2,0.2,0.2,0.3,0.3,0.4l2.9-0.5c0.1-0.2,0.3-0.7,0.4-0.8c0.1-0.7,0.1-0.8,0.3-1.5
	c0-0.1,0.1-0.9,0.2-1l0.3-1.8c0.1-0.7,0.1-0.7,0.1-0.9c0-0.5-0.1-0.6-0.3-0.7c-0.1,0-0.7-0.1-0.7-0.1c-0.1,0-0.9,0-1.1,0l-1.8,0.3
	l-2.4,0.4c-0.5,0.1-1,0.2-1.2,0.2c-0.2,0-0.3-0.1-0.5-0.1c0-0.1-0.1-0.1-0.1-0.1c0-0.2,0.4-0.3,0.6-0.3l1.1-0.3
	c0.3-0.1,0.4-0.1,0.7-0.8c0-0.1,0.4-1.2,0.4-1.4c0-0.1,0-0.1-0.1-0.2l-0.1-0.1c0.1-0.3,0.5-0.7,0.8-0.9c0.2-0.1,0.4-0.2,0.5-0.2
	c0.2,0,0.4,0.1,0.5,0.3c0,0,0.1,0.3,0.1,0.4c0,0.5-0.4,1.3-0.6,1.6c-0.4,0.6-0.4,0.7-0.4,0.9h0.2l2.5-0.5l0.7-0.1
	c0.2,0,0.3-0.1,0.6-0.1c0.6,0,0.7,0.1,1.6,0.5c0.1,0,0.5,0.3,0.6,0.5c0.2,0.2,0.2,0.5,0.2,0.8c0,0.1-0.1,0.7-0.1,0.9l-0.3,1.3
	l-0.9,3.4v0.1l0.1,0.1l1.7-0.3c0.2,0,0.4,0,0.6,0c0.4,0,0.6,0,1,0.4c0,0,0.4,0.3,0.4,0.6c0,0.2-0.5,0.6-1.1,0.5c0,0-0.1,0-0.2,0
	c-0.5,0-0.6,0-1.1,0l-2.5,0.2l-0.9,0.1l-2,0.2c-0.1,0-0.9,0.1-0.9,0.1c-0.1,0.1-0.4,0.7-0.4,0.8c-0.3,0.5-0.3,0.6-0.6,0.9
	c0,0-0.1,0.1-0.1,0.1l-1.1,1c-0.2,0.2-0.3,0.2-0.4,0.3c-0.4,0.4-0.9,0.7-1.1,0.7c-0.1,0-0.1-0.1-0.1-0.1c0-0.1,0.2-0.3,0.4-0.6
	c0.1-0.2,0.5-0.9,0.6-1.1c0.3-0.6,0.6-1.2,0.8-1.9c-0.1,0-0.3,0-0.3,0c-0.9,0.1-1,0.1-1.2,0.1l-1.6,0.2c-0.4,0.1-0.9,0.1-1.3,0.1
	c-0.3,0-1-0.1-1-0.3c0,0,0-0.1,0.1-0.1c0.1-0.1,0.1-0.1,0.7-0.2l1.5-0.3l0.2-0.1L118.8,102.8z M121.1,100.3c0.2,0,0.2,0,0.3,0
	c0.4,0,0.7,0.2,0.7,0.5c0,0.1,0,0.2-0.1,0.3c-0.3,0.2-0.3,0.2-0.8,0.4c-0.2,0.1-0.3,0.1-0.4,0.1c-0.1,0-0.1-0.1-0.1-0.2
	C121.2,100.8,121.2,100.6,121.1,100.3z M123.8,98.5L123.8,98.5l1.7-0.3c0.3-0.1,0.9,0.2,0.9,0.5c0,0.1-0.1,0.3-0.2,0.3l-1.6,0.3
	c-0.2,0-0.6,0.1-0.7,0.2l-0.1,1.4c0,0.3-0.1,0.9-0.4,0.9c-0.1,0-0.4-0.1-0.5-0.4c-0.1-0.2-0.1-0.2-0.1-0.6l0-1.2l-1.4,0.1
	c-0.4,0-0.5,0-0.7-0.1c0,0-0.1-0.1-0.1-0.1c0-0.1,0.1-0.2,0.3-0.2l1.8-0.4l0.1-0.1v-1.5c0,0-0.1-0.2-0.1-0.2c0-0.1,0.2-0.4,0.3-0.5
	c0,0,0.1-0.1,0.3-0.1c0.4,0,0.4,0.4,0.4,0.4L123.8,98.5z M121.4,97.4c0.2,0,0.6,0.1,0.6,0.5c0,0.3-0.3,0.5-0.6,0.5
	c-0.6,0-0.6-0.5-0.6-0.8C120.9,97.5,121.1,97.4,121.4,97.4z M124.3,97.7c0.2-0.3,0.3-0.7,0.3-1c0.2-0.1,0.4-0.1,0.6-0.1
	c0.2,0,0.4,0.2,0.4,0.4c0,0.5-0.9,0.8-1.4,0.8V97.7z M125.5,99.9c0.7,0,0.9,0.4,0.9,0.6c0,0.2-0.2,0.5-0.4,0.5
	c-0.5,0-1.2-0.5-1.3-0.6c0,0,0-0.1,0-0.3C124.9,100,125,99.9,125.5,99.9z M130,107.7c0,0.4-0.3,0.6-0.6,0.6c-0.1,0-0.4-0.1-0.5-0.1
	c0-0.1-0.1-0.1-0.4-0.3c-0.5-0.4-0.6-0.5-0.9-0.7c-0.1,0-0.1-0.1-0.1-0.1c-0.1-0.1-0.7-0.4-0.8-0.5c-0.3-0.2-0.4-0.3-0.5-0.5
	c0,0-0.1-0.1-0.1-0.1c0-0.1-0.1-0.1-0.1-0.1c0-0.1,0.1-0.3,0.6-0.3c1.1,0,3,0.5,3.4,1.5C129.9,107.2,130,107.6,130,107.7z"/>
<path fill="#FFFFFF" d="M138.1,103.3c-0.2-0.7-0.2-0.7-0.4-0.9c0-0.1,0-0.1,0-0.1c0-0.4,0.1-1.1,0.8-1.1c0.4,0,0.7,0.5,1,1.5
	c0.2,1.1,0.4,1.7,0.4,2.7c0,0.5-0.1,0.9-0.4,0.9c-0.1,0-0.2-0.1-0.6-0.5c-0.1-0.1-0.3-1.1-0.4-1.3L138.1,103.3z M148.1,95.3
	c-1,0.1-2.5,0.2-3.5,0.3c-1.2,0.1-1.3,0.2-2.4,0.4c-0.4,0.1-1.3,0.2-1.3,0.2c-0.3,0-1.7,0-1.7-0.4c0-0.2,0.4-0.3,0.4-0.3
	c1.7-0.3,2.1-0.4,5.5-1c1.3-0.2,1.4-0.2,2.8-0.4c0.1,0,1.5-0.2,1.6-0.2c0.6,0,1,0.6,1,0.8c0,0.1-0.1,0.2-0.3,0.4
	C149.7,95.2,149.5,95.2,148.1,95.3z M144.7,99.5l0-1.6c0-0.6,0-0.7-0.2-0.9c0-0.1,0.2-0.9,0.7-0.9c0.2,0,0.5,0.1,0.5,0.2
	c0,0.1,0.1,0.4,0.1,0.4l0,2.4l2-0.3l1.5-0.2c0.2,0,0.5-0.1,0.8-0.1c0.9,0,2.2,1,2.2,1c0.4,0.4,0.5,0.5,0.5,0.8c0,0.1,0,0.2,0,0.2
	l-0.7,2l-0.5,1.3l-0.7,1.4c-0.1,0.2-0.3,0.4-0.4,0.5c-0.1,0-0.5,0.1-0.6,0.1c-0.2,0-0.9-0.2-1-0.2c-0.2,0-0.7-0.1-0.9,0l-2.9,0.2
	l-2.2,0.2c0,0-1.4,0-1.4,0c-0.4,0-0.9-0.2-0.9-0.5c0-0.1,0.1-0.2,0.2-0.3l2.5-0.3l2.8-0.3l2.2-0.3c0.3,0,0.5-0.1,0.7-0.3
	c0.1-0.1,0.4-0.9,0.4-1l0.4-1.9c0.1-0.2,0.2-0.9,0.2-1.2c0-0.2-0.1-0.4-0.3-0.5c-0.1,0-0.7,0-0.9,0l-1.7,0.2c-0.2,0-0.9,0.2-1,0.2
	c-0.3,0-0.4,0.1-0.6,0.1c-0.1,0.6-0.1,0.9-0.1,1c0,0.5,0.1,0.8,0.4,0.8c0.1,0,0.2,0,1-0.3c0.2-0.1,0.5-0.1,0.6-0.1
	c0.7,0,1.1,0.4,1.1,0.7c0,0.2-0.3,0.4-0.5,0.4l-1.3,0.2c-0.3,0-0.6,0.1-1,0.1c-1.1,0-1.2-0.6-1.3-1.6c0-0.6,0-0.9,0-1.1
	c-0.4-0.1-1.7,0.2-1.8,0.4c0,0-0.3,0.6-0.3,0.7c-0.1,0.1-0.4,0.8-0.5,0.9c-0.1,0.2-0.6,0.8-0.8,0.9h-0.2l0.5-1.9l0.1-0.5
	c-0.2,0-1,0.1-1.2,0.1c-0.1,0-0.9,0-0.9-0.3c0-0.2,0.1-0.2,0.7-0.3c0.7-0.2,0.8-0.2,1.3-0.3c0.2,0,0.2-0.1,0.2-0.3
	c0-0.2-0.1-1.2-0.1-1.4c0-0.1-0.2-0.3-0.2-0.3c0-0.1,0.3-0.9,0.8-0.9c0.2,0,0.5,0.2,0.5,0.4c0.2,0.4,0.3,1.2,0.3,1.2c0,0,0,1,0,1
	c0,0,0,0.1,0,0.2C143.4,99.8,144.4,99.6,144.7,99.5L144.7,99.5z"/>
<path fill="#FFFFFF" d="M159.2,102.2c0-0.6,0.4-0.9,0.8-0.9c0.5,0,0.9,1,0.9,1.9c0,0.5-0.2,0.8-0.4,0.8c-0.3,0-0.4-0.1-1-1.3
	c-0.1-0.1-0.2-0.2-0.3-0.2C159.2,102.4,159.2,102.3,159.2,102.2z M164.5,94.6L164.5,94.6c0.1-0.1,0.1-0.3,0.1-0.5
	c0-0.2,0-0.9-0.2-1.4c0.1-0.4,0.3-0.9,0.8-0.9c0.4,0,0.7,0.5,0.7,1c0,0.2-0.1,1.2-0.1,1.4c0.2,0,0.9-0.2,1.2-0.3
	c0.6-0.1,1.1-0.2,1.5-0.2c1.1,0,1.2,0.5,1.2,0.5c0,0.1-0.1,0.4-0.6,0.4l-1.8,0.2c-0.6,0.1-0.6,0.1-0.8,0.1l-1.6,0.3l-1.5,0.2
	c-0.2,0-1.4,0.2-1.4,0.2c-0.1,0-0.6-0.1-0.6-0.2c0-0.2,0.4-0.3,0.9-0.5L164.5,94.6z M161.9,100.9c0.8-0.2,5.6-1.2,6.5-1.4
	c0.4-0.1,0.7-0.1,1.4-0.1c0.9,0,1.5,0,2.1,0.4c0.1,0.1,0.4,0.5,0.4,0.8c0,0.4-0.5,0.8-0.9,0.8c-0.5,0-1.1-0.5-1.1-0.6
	c-0.1-0.3-0.1-0.3-0.2-0.3c-0.3-0.1-0.5-0.1-0.8-0.1c-0.6,0-1.8,0.1-2.5,0.3c-0.2,0.1-1.4,0.2-1.6,0.3c-0.4,0.1-1.9,0.4-2.2,0.5
	c-0.6,0.1-1,0.1-1,0.1c-0.2,0-0.5-0.1-0.5-0.3C161.4,101.1,161.7,101,161.9,100.9z M162.4,97.3c0.5,0,1,1.1,1,1.8
	c0,0.2-0.1,0.6-0.3,0.6c-0.3,0-0.5-0.4-0.6-0.5c-0.4-0.9-0.5-0.9-0.6-1.1C161.9,98,161.9,97.3,162.4,97.3z M163.4,102.6
	c0.2,0,0.4,0.1,0.5,0.3c0.1,0.1,0.2,0.2,0.2,0.7c0,0.5-0.2,1.2-0.4,1.5c-0.2,0.5-0.7,1.5-1,1.8c-0.1,0.1-0.4,0.4-0.5,0.4
	c-0.1,0-0.1-0.1-0.1-0.2c0,0,0-0.4,0.1-0.5c0.5-1.5,0.5-2.4,0.5-2.6c0-0.2,0-0.6-0.2-0.9C162.8,102.6,163.3,102.6,163.4,102.6z
	 M166.2,98.6c0.7-0.1,1.1-1.3,1.1-1.5c0-0.2-0.2-0.3-0.3-0.3c-0.1,0-0.9,0.1-2.1,0.4c-0.2,0.1-0.6,0.1-0.9,0.1
	c-0.3,0-0.5-0.2-0.5-0.3c0-0.3,0.8-0.4,1.1-0.5c0.4-0.1,0.4-0.1,1.8-0.3c0.3-0.1,0.6-0.1,1-0.1c0.2,0,0.7,0,1.1,0.4
	c0.4,0.4,0.5,0.4,0.5,0.7c0,0.3-0.1,0.4-0.6,1.1c-0.4,0.6-0.8,1.1-1.2,1.1c-0.1,0-0.6,0-0.7,0c-0.6,0.1-1.9,0.3-2.3,0.3
	c-0.4,0-0.4-0.2-0.4-0.3c0-0.1,0.2-0.2,0.3-0.3L166.2,98.6z M169.7,108.4l-1.7-0.1c-0.5,0-1.5-0.4-1.9-1.2c-0.2-0.4-0.3-1.2-0.3-1.5
	l0-1.9c0-0.1,0-0.7,0-0.8c0-0.1-0.1-0.4-0.1-0.4c0-0.1,0.3-0.8,0.9-0.8c0.6,0,0.6,0.8,0.6,1c0,0.1-0.1,2.2-0.1,2.2
	c0,1.5,0.1,1.6,0.5,1.9c0.7,0.2,0.9,0.3,2,0.3c0.1,0,0.6,0,0.9-0.1c0.9-0.3,1-0.3,1.2-0.3c0.6,0,1.4,0.4,1.4,0.8
	c0,0.4-0.5,0.6-0.6,0.6c-0.1,0-0.6,0.1-0.7,0.1L169.7,108.4z"/>
<path fill="#FFFFFF" d="M182.7,92.8c0,0.3,0,0.4-0.2,1c0,0,0,0.1,0,0.2c0.1,0,0.9-0.1,0.9-0.1c0.1,0,0.3,0,0.4,0
	c0.1,0,0.3,0,0.3,0.2c0,0.2-0.2,0.3-0.3,0.4h-0.1c-0.2,0.1-0.3,0.2-0.8,0.3c-0.3,0.1-0.5,0.2-0.7,0.3c-0.1,0.1-0.1,0.1-0.3,0.5
	c0,0.1-0.4,1.1-1.2,1.9c-0.3,0.2-0.4,0.3-0.5,0.3c-0.1,0-0.1-0.1-0.1-0.2c0,0,0.1-0.4,0.2-0.6l0.5-1.6l-0.1,0
	c-0.6,0.1-0.9,0.2-1.3,0.2c-0.2,0-0.6-0.1-0.8-0.3c0-0.1,0-0.1,0-0.2c0.1-0.2,0.1-0.2,0.7-0.4c0.5-0.1,0.6-0.2,0.8-0.2
	c0.1,0,0.9-0.2,0.9-0.3c0.1-0.1,0.2-1.1,0.2-1.2c0-0.1-0.1-0.5-0.1-0.5c0-0.1,0.4-0.6,0.7-0.6C182,91.9,182.7,91.9,182.7,92.8z
	 M183.7,100.8c0.1,0,0.2-0.1,0.9-0.2c0.3-0.1,0.6-0.1,0.8-0.1c0.3,0,0.8,0,0.8,0.5c0,0.2-0.1,0.4-0.7,0.5l-1.8,0.4
	c0,0.2,0,0.3,0,0.4c0,0.2,0,0.4,0.1,0.7c0.2,0,0.9-0.2,1.1-0.3c0.2,0,0.7-0.1,0.9-0.1c0.3,0,0.5,0.3,0.5,0.4c0,0.3-0.4,0.4-0.6,0.4
	l0,0l-1.9,0.4c0,0.1-0.1,0.1-0.1,0.2c0,0.1,0,0.7,0,0.8c0.1,0,0.5-0.2,0.5-0.2c0.3,0,1,0.4,1,0.9c0,0.4-0.5,1.1-1,1.5
	c-0.4,0.4-0.5,0.4-1.2,0.8c-0.3,0.2-0.5,0.2-0.6,0.2s-0.2-0.1-0.2-0.2c0-0.1,0.5-0.6,0.6-0.8c0.4-0.8,0.5-0.8,0.5-1l-0.1-0.1
	l-0.3,0.1l-1.5,0.5c-0.2,0.1-0.5,0.1-0.7,0.1c-0.1,0-0.2,0-0.3,0c-0.2-0.2-0.4-0.3-0.4-0.7c0-0.3,0.1-0.3,0.4-0.3
	c0.4,0,0.9-0.1,1.2-0.2c0.6-0.1,0.7-0.1,0.7-0.5c0-0.4,0-2.2,0-2.6c0-0.2,0-1,0-1.1c0-0.1-0.1-0.4-0.1-0.5c0-0.6,0.5-0.9,0.7-0.9
	C183.2,99.8,183.6,100,183.7,100.8L183.7,100.8z M184.8,97c-0.2,0.2-0.9,1-1,1.2c-0.2,0.2-0.4,0.4-0.6,0.4c-0.2,0-0.4-0.2-0.4-0.4
	c0-0.6,1-2,1.1-2.2c0.5-0.7,0.5-1.1,0.5-1.4c0.1-0.4,0.4-0.5,0.5-0.5c0.3,0,1,0.7,1,1.1c0,0.1-0.1,0.5-0.2,0.6L184.8,97z
	 M187.9,101.3v-1.7c0-0.4-0.5-0.6-1-0.5l-1.4,0.3c-0.3,0.1-0.6,0.2-1.1,0.2c-0.2,0-0.5-0.1-0.5-0.3c0-0.2,0.4-0.3,0.4-0.3
	c2.4-0.5,2.7-0.6,3.5-0.6h0.3c0.5,0,1.2,0.5,1.3,0.6c0.2,0.2,0.3,0.5,0.3,1.2v1.7c0,0.8-0.1,1.7-0.3,2.5c-0.1,0.6-0.4,1.1-0.7,1.1
	c-0.5,0-0.6-0.8-0.6-1.2c0-0.3,0-0.3,0-0.8L187.9,101.3z M186.4,95.3c0-0.1,0.1-0.7,0.6-0.8c0.8-0.1,0.8,1.4,0.8,1.7v0.7
	c0,0.2-0.1,0.4-0.3,0.4c-0.1,0-0.2,0-0.3-0.1c-0.2-0.2-0.2-0.2-0.7-1.7L186.4,95.3z M187.5,107c-0.1-0.1-0.1-0.1-0.1-0.3
	c0-0.3,0.5-0.3,0.6-0.3c0.8,0,1.5,0.3,1.9,0.6c0.5,0.4,0.5,0.7,0.5,0.8c-0.1,0.2-0.3,0.5-0.6,0.5C188.9,108.4,187.9,107.6,187.5,107
	L187.5,107z M188.4,96.7c0.1,0,1.2-0.4,1.2-0.4c0.1-0.2,0.7-1.2,0.7-1.6c0-0.1,0-0.1-0.1-0.2c-0.2-0.1-0.2-0.1-0.5-0.1
	c-0.4,0-0.7,0.1-0.9,0.1c-0.1,0-0.7,0.1-0.8,0.1c-0.1,0-0.4,0-0.4-0.2c0-0.1,0.2-0.2,0.3-0.3c0.3-0.1,1.9-0.4,2.4-0.4
	c0.4,0,1.6,0.8,1.6,1.2c0,0.4-0.2,0.7-0.9,1.5c-0.5,0.6-0.7,0.7-0.9,0.7c-0.7,0-0.8,0-1.5,0.2c0,0-0.1,0-0.1,0
	c-0.2,0-0.3-0.1-0.4-0.3C188.2,96.9,188.2,96.8,188.4,96.7z"/>
<path fill="#FFFFFF" d="M200.4,96.5c0,0.1,0,0.2-0.1,0.8c-0.1,0.6-0.1,1.1-0.1,1.4c0,0.4,0,3,1,4.4c0.2,0.4,0.4,0.5,0.4,0.8
	c0,0.4-0.3,1.1-0.7,1.1c-0.6,0-1-0.9-1.1-1.1c-0.3-0.7-0.8-2.1-0.8-5c0-1.2,0.2-2.5,0.4-3.1c0.1-0.2,0.2-0.4,0.4-0.4
	C200,95.3,200.4,95.9,200.4,96.5z M204.8,103.3c1.4,0.4,2.3,0.4,3.2,0.4c0.1,0,1.1,0,1.4-0.1c0.4-0.2,0.4-0.2,0.6-0.2
	c0.4,0,1.3,0.3,1.3,0.9c0,0.8-1.6,0.8-2.4,0.8c-1.9,0-4-0.6-4.7-1.1c-0.2-0.1-0.6-0.5-0.6-0.8c0-0.1,0-0.3,0.2-0.3
	C203.9,103,204.6,103.3,204.8,103.3z M207.6,95.6c0.9,0,2.2,0.2,2.7,0.6c0.2,0.2,0.5,0.4,0.5,0.7c0,0.6-1,0.8-1.5,0.8
	c-0.2,0-0.3-0.1-0.3-0.1c0-0.1,0-0.2,0-0.2c0-0.2-0.8-0.5-2.6-0.5h-1.2c-0.2,0-0.4-0.1-0.4-0.4C204.8,95.9,206.6,95.6,207.6,95.6z"
	/>
<path fill="#FFFFFF" d="M220.1,106.1c0,1.3-1,2.3-2.3,2.3c-1.3,0-2.3-1-2.3-2.3c0-1.3,1.1-2.3,2.3-2.3
	C219.1,103.7,220.1,104.8,220.1,106.1z M216.3,106.1c0,0.8,0.7,1.5,1.5,1.5c0.8,0,1.5-0.7,1.5-1.5c0-0.8-0.6-1.5-1.5-1.5
	C217,104.6,216.3,105.3,216.3,106.1z"/>
</svg>
